<?xml version="1.0" encoding="utf-8"?>
<!-- Generator: Adobe Illustrator 23.0.0, SVG Export Plug-In . SVG Version: 6.00 Build 0)  -->
<svg version="1.1" id="Слой_1" xmlns="http://www.w3.org/2000/svg" xmlns:xlink="http://www.w3.org/1999/xlink" x="0px" y="0px"
	 viewBox="0 0 14.54 14.54" style="enable-background:new 0 0 14.54 14.54;" xml:space="preserve">
<style type="text/css">
	.st0{fill:#FFFFFF;}
</style>
<path class="st0" d="M14.54,11.79c0,0.75-0.27,1.4-0.81,1.94s-1.18,0.81-1.94,0.81H9.96V8.78h1.94l0.27-2.1H9.96V5.33
	c0-0.32,0.11-0.59,0.27-0.81c0.16-0.16,0.48-0.27,0.92-0.27h1.24V2.26c-0.59-0.05-1.18-0.11-1.72-0.11c-0.86,0-1.56,0.27-2.05,0.75
	C8.08,3.39,7.86,4.15,7.86,5.06v1.56h-2.1v2.1h2.1v5.76H2.69c-0.7,0.05-1.35-0.22-1.88-0.75S0,12.55,0,11.79V2.75
	c0-0.75,0.27-1.4,0.81-1.94S1.99,0,2.75,0h9.1c0.7,0,1.35,0.27,1.88,0.81s0.81,1.18,0.81,1.94V11.79L14.54,11.79z"/>
</svg>
