<?xml version="1.0" encoding="utf-8"?>
<!-- Generator: Adobe Illustrator 23.0.0, SVG Export Plug-In . SVG Version: 6.00 Build 0)  -->
<svg version="1.1" id="Слой_1" xmlns="http://www.w3.org/2000/svg" xmlns:xlink="http://www.w3.org/1999/xlink" x="0px" y="0px"
	 viewBox="0 0 19.69 12.48" style="enable-background:new 0 0 19.69 12.48;" xml:space="preserve">
<style type="text/css">
	.st0{fill:#DA4536;}
</style>
<g>
	<polygon class="st0" points="17.97,3.38 16.26,3.38 16.26,5.09 14.54,5.09 14.54,6.81 16.26,6.81 16.26,8.53 17.97,8.53 
		17.97,6.81 19.69,6.81 19.69,5.09 17.97,5.09 	"/>
	<path class="st0" d="M6.1,5.09v2.4h3.3c-0.28,1.49-1.51,2.52-3.3,2.52c-1.96,0-3.58-1.72-3.58-3.78S4.09,2.46,6.1,2.46
		c0.9,0,1.73,0.29,2.35,0.92l1.73-1.77C9.12,0.63,7.72,0,6.1,0C2.74,0,0,2.8,0,6.24s2.74,6.24,6.1,6.24c3.53,0,5.88-2.52,5.88-6.07
		c0-0.46-0.06-0.92-0.11-1.32H6.1z"/>
</g>
</svg>
