<?xml version="1.0" encoding="utf-8"?>
<!-- Generator: Adobe Illustrator 23.0.0, SVG Export Plug-In . SVG Version: 6.00 Build 0)  -->
<svg version="1.1" id="Слой_1" xmlns="http://www.w3.org/2000/svg" xmlns:xlink="http://www.w3.org/1999/xlink" x="0px" y="0px"
	 viewBox="0 0 10.47 7.66" style="enable-background:new 0 0 10.47 7.66;" xml:space="preserve">
<style type="text/css">
	.st0{fill:#FFFFFF;}
</style>
<g>
	<path class="st0" d="M10.47,0.88c-0.43,0.2-0.76,0.3-1.3,0.3c0.43-0.3,0.76-0.59,0.97-1.09c-0.43,0.2-0.87,0.39-1.4,0.5
		C8.32,0.2,7.77,0,7.23,0C6.05,0,5.08,0.89,5.08,1.98c0,0.2,0,0.3,0.11,0.5c-1.73-0.2-3.35-1-4.42-2.18c-0.21,0.3-0.21,0.59-0.21,1
		c0,0.7,0.43,1.29,0.97,1.59c-0.43,0-0.64-0.1-0.97-0.3l0,0c0,1,0.76,1.69,1.61,1.89c-0.21,0-0.43,0.1-0.54,0.1
		c-0.11,0-0.33,0-0.43,0c0.33,0.8,1.08,1.39,1.94,1.39c-0.64,0.5-1.61,0.8-2.6,0.8c-0.21,0-0.33,0-0.54,0
		c0.97,0.5,2.05,0.89,3.24,0.89c3.88,0,6.05-2.98,6.05-5.56c0-0.1,0-0.2,0-0.3C9.71,1.68,10.14,1.29,10.47,0.88z"/>
</g>
</svg>
